<?xml version="1.0" encoding="UTF-8"?>
<svg id="Layer_2" data-name="Layer 2" xmlns="http://www.w3.org/2000/svg" viewBox="0 0 491.03 345.86">
  <defs>
    <style>
      .cls-1 {
        fill: #666;
      }

      .cls-1, .cls-2, .cls-3, .cls-4 {
        stroke-width: 0px;
      }

      .cls-2 {
        fill: #e6e6e6;
      }

      .cls-3 {
        fill: #333;
      }

      .cls-4 {
        fill: #ff7bac;
      }
    </style>
  </defs>
  <g id="Layer_1-2" data-name="Layer 1">
    <g>
      <path class="cls-3" d="M346.82,77.93h-202.61l28.39-56.58c6.56-13.07,20.12-21.35,34.97-21.35h75.89c14.85,0,28.41,8.28,34.97,21.35l28.39,56.58Z"/>
      <rect class="cls-2" x="210.18" y="35.6" width="70.66" height="42.33"/>
      <path class="cls-4" d="M413.14,32.59h33.31c10.43,0,18.9,8.47,18.9,18.9v11.69h-71.11v-11.69c0-10.43,8.47-18.9,18.9-18.9Z"/>
      <path class="cls-3" d="M467.61,63.18H23.41c-12.93,0-23.41,10.48-23.41,23.41v235.86c0,12.93,10.48,23.41,23.41,23.41h444.2c12.93,0,23.42-10.48,23.42-23.41V86.59c0-12.93-10.49-23.41-23.42-23.41ZM373.39,314.45H30.36V94.59h343.03v219.86Z"/>
      <circle class="cls-1" cx="434.17" cy="279.71" r="30.32"/>
      <circle class="cls-1" cx="417.44" cy="114.27" r="12.35"/>
      <circle class="cls-1" cx="450.9" cy="142.44" r="12.35"/>
    </g>
  </g>
</svg>