<?xml version="1.0" encoding="UTF-8"?>
<svg id="Layer_2" data-name="Layer 2" xmlns="http://www.w3.org/2000/svg" viewBox="0 0 94.79 99.67">
  <defs>
    <style>
      .cls-1 {
        fill: #fcee21;
        stroke: #ff1d25;
        stroke-miterlimit: 10;
      }
    </style>
  </defs>
  <g id="Layer_1-2" data-name="Layer 1">
    <path class="cls-1" d="M47.39,1.41l2.8,7.4c2.91,7.68,12.18,10.69,19.04,6.19l6.62-4.34-2.08,7.63c-2.16,7.92,3.57,15.8,11.77,16.2l7.9.38-6.17,4.95c-6.4,5.14-6.4,14.88,0,20.02l6.17,4.95-7.9.38c-8.2.4-13.93,8.28-11.77,16.2l2.08,7.63-6.62-4.34c-6.87-4.5-16.13-1.49-19.04,6.19l-2.8,7.4-2.8-7.4c-2.91-7.68-12.18-10.69-19.04-6.19l-6.62,4.34,2.08-7.63c2.16-7.92-3.57-15.8-11.77-16.2l-7.9-.38,6.17-4.95c6.4-5.14,6.4-14.88,0-20.02l-6.17-4.95,7.9-.38c8.2-.4,13.93-8.28,11.77-16.2l-2.08-7.63,6.62,4.34c6.87,4.5,16.13,1.49,19.04-6.19l2.8-7.4Z"/>
  </g>
</svg>