<?xml version="1.0" encoding="UTF-8"?>
<svg id="Layer_2" data-name="Layer 2" xmlns="http://www.w3.org/2000/svg" viewBox="0 0 115.97 92.67">
  <defs>
    <style>
      .cls-1 {
        fill: #fd0;
      }

      .cls-1, .cls-2 {
        stroke-width: 0px;
      }

      .cls-2 {
        fill: #000;
      }
    </style>
  </defs>
  <g id="Layer_1-2" data-name="Layer 1">
    <g>
      <polygon class="cls-1" points="50.19 65.35 25.47 81.45 37.33 58.21 4.79 59.89 32.27 46.33 4.79 32.77 37.33 34.45 25.47 11.22 50.19 27.32 57.99 3.25 65.78 27.32 90.5 11.22 78.64 34.45 111.18 32.77 83.7 46.33 111.18 59.89 78.64 58.21 90.5 81.45 65.78 65.35 57.99 89.42 50.19 65.35"/>
      <path class="cls-2" d="M57.99,6.49l7.25,22.38,22.67-14.77-10.94,21.44,29.43-1.52-24.95,12.31,24.95,12.31-29.43-1.52,10.94,21.44-22.67-14.77-7.25,22.38-7.25-22.38-22.67,14.77,10.94-21.44-29.43,1.52,24.95-12.31-24.95-12.31,29.43,1.52-10.94-21.44,22.67,14.77,7.25-22.38M57.99,0l-1.9,5.87-6.44,19.89-20.48-13.34-6.28-4.09,3.41,6.68,9.37,18.36-25.97-1.34-9.68-.5,8.69,4.29,21.31,10.52-21.31,10.52L0,61.14l9.68-.5,25.97-1.34-9.37,18.36-3.41,6.68,6.28-4.09,20.48-13.34,6.44,19.89,1.9,5.87,1.9-5.87,6.44-19.89,20.48,13.34,6.28,4.09-3.41-6.68-9.37-18.36,25.97,1.34,9.68.5-8.69-4.29-21.31-10.52,21.31-10.52,8.69-4.29-9.68.5-25.97,1.34,9.37-18.36,3.41-6.68-6.28,4.09-20.48,13.34-6.44-19.89-1.9-5.87h0Z"/>
    </g>
  </g>
</svg>